<?xml version="1.0" encoding="utf-8"?>
<!-- Generator: Adobe Illustrator 15.1.0, SVG Export Plug-In . SVG Version: 6.00 Build 0)  -->
<!DOCTYPE svg PUBLIC "-//W3C//DTD SVG 1.1//EN" "http://www.w3.org/Graphics/SVG/1.1/DTD/svg11.dtd">
<svg version="1.1"
	 id="svg1" xmlns:inkscape="http://www.inkscape.org/namespaces/inkscape" xmlns:sodipodi="http://sodipodi.sourceforge.net/DTD/sodipodi-0.dtd" inkscape:version="0.38.1" sodipodi:docbase="/home/danny/flat/scalable/actions" sodipodi:docname="player_pause.svg" sodipodi:version="0.32"
	 xmlns="http://www.w3.org/2000/svg" xmlns:xlink="http://www.w3.org/1999/xlink" x="0px" y="0px" width="60px" height="60px"
	 viewBox="0 0 60 60" enable-background="new 0 0 60 60" xml:space="preserve">
<sodipodi:namedview  inkscape:window-y="0" inkscape:window-x="0" inkscape:window-width="1016" inkscape:window-height="693" inkscape:pageshadow="2" inkscape:pageopacity="0.0" borderopacity="1.0" bordercolor="#666666" inkscape:zoom="6.9465337" inkscape:cx="46.905586" id="base" pagecolor="#ffffff" inkscape:cy="25.599763">
	</sodipodi:namedview>
<circle fill="#B3B3B3" stroke="#333333" stroke-linecap="round" stroke-linejoin="round" cx="30" cy="30" r="29.271"/>
<path fill="#FFFFFF" stroke="#333333" stroke-linecap="round" stroke-linejoin="round" d="M34.55,18.287h5.902
	c0.243,0,0.439,0.142,0.439,0.317v22.792c0,0.176-0.196,0.316-0.439,0.316H34.55c-0.244,0-0.44-0.143-0.44-0.316V18.604
	C34.109,18.429,34.306,18.287,34.55,18.287z"/>
<path fill="#FFFFFF" stroke="#333333" stroke-linecap="round" stroke-linejoin="round" d="M19.549,18.287h5.903
	c0.244,0,0.44,0.142,0.44,0.317v22.792c0,0.176-0.196,0.316-0.44,0.316h-5.903c-0.244,0-0.44-0.143-0.44-0.316V18.604
	C19.109,18.429,19.306,18.287,19.549,18.287z"/>
</svg>
