<svg width="640" height="480" xmlns="http://www.w3.org/2000/svg">
 <g>
  <title>Layer 1</title>
  <g id="g3">
   <path fill="#4165A5" id="path5" d="m137.875,131.41299c0,7.718 -13.723,5.431 -18.417,5.431c-12.643,0 -25.286,0 -37.93,0c-24.224,0 -48.448,0 -72.67,0c-6.382,0 -8.62,-3.20401 -8.62,-9.287c0,-10.142 0,-20.27899 0,-30.416c0,-26.945 0,-53.88499 0,-80.83c0,-4.78499 -1.999,-16.31099 5.582,-16.31099c6.781,0 13.563,0 20.344,0c27.66,0 55.32,0 82.98,0c7.578,0 15.15701,0 22.73601,0c7.631,0 5.99399,9.216 5.99399,14.268c0,26.53 0,53.058 0,79.586c0.00101,12.519 0.00101,25.041 0.00101,37.559"/>
   <path fill="#FFFFFF" id="path7" d="m135.123,129.24001c0,7.63301 -14.27,5.25601 -18.844,5.25601c-13.041,0 -26.082,0 -39.123,0c-22.688,0 -45.376,0 -68.064,0c-7.888,0 -6.119,-9.40101 -6.119,-14.71001c0,-12.902 0,-25.80401 0,-38.708c0,-13.521 0,-27.046 0,-40.569c0,-4.74 -2.331,-18.21 5.395,-18.21c40.21,0 80.424,0 120.634,0c7.362,0 6.121,7.554 6.121,12.605c0,11.812 0,23.62599 0,35.438c0,19.63199 0,39.26699 0,58.89799"/>
   <path fill="#F4F4F4" id="path9" d="m130.37199,124.102c0,7.438 -14.89101,4.966 -19.271,4.966c-13.417,0 -26.83499,0 -40.25199,0c-13.75801,0 -27.515,0 -41.273,0c-4.44,0 -16.747,2.276 -20.418,-1.45599c-4.111,-4.179 -1.433,-18.57 -1.433,-23.587c0,-14.448 0,-28.896 0,-43.343c0,-9.237 0,-18.472 0,-27.707c0,-7.41 10.96,-5.382 15.717,-5.382c21.114,0 42.231,0 63.345,0c9.29,0 18.577,0 27.866,0c3.491,0 11.444,-1.431 14.287,1.452c2.979,3.017 1.433,11.547 1.433,15.206c0,10.758 0,21.516 0,32.274c-0.00101,15.86 -0.00101,31.71799 -0.00101,47.577"/>
   <linearGradient y2="3.69703" y1="3.69703" x2="-11.30756" x1="-11.32625" id="XMLID_2_" gradientTransform="matrix(2.1657 10.4264 10.4264 -2.1657 -5508.144 -6816.1445)">
    <stop stop-color="#F4F4F4" offset="0" id="stop12"/>
    <stop stop-color="#CDCDCD" offset="1" id="stop14"/>
   </linearGradient>
   <path fill="url(#XMLID_2_)" id="path16" d="m40.998,102.074c0,-2.262 -0.16,-22.26099 0.158,-22.26099c4.347,0 8.692,0 13.037,0c2.054,0 11.686,-1.42001 13.197,0c1.506,1.41599 -0.915,22.26099 -0.158,22.26099c-8.745,0 -17.49,0 -26.234,0m31.336,0c0,-2.262 -0.16,-22.26099 0.157,-22.26099c4.348,0 8.692,0 13.039,0c2.052,0 11.684,-1.42001 13.194,0c1.507,1.41599 -0.915,22.26099 -0.157,22.26099c-8.745,0 -17.489,0 -26.233,0m-31.336,-27.20499c0,-2.26501 -0.16,-22.28 0.158,-22.28c4.347,0 8.692,0 13.037,0c2.054,0 11.686,-1.422 13.197,0c1.509,1.418 -0.917,22.28 -0.158,22.28c-8.745,0 -17.49,0 -26.234,0m31.336,0c0,-2.26501 -0.16,-22.28 0.157,-22.28c4.348,0 8.692,0 13.039,0c2.052,0 11.684,-1.422 13.194,0c1.509,1.418 -0.915,22.28 -0.157,22.28c-8.745,0 -17.489,0 -26.233,0m31.336,-44.716c-6.615,0 -4.945,1.433 -4.945,7.871c0,5.286 2.279,9.62 -3.47,9.62c-6.48399,0 -12.967,0 -19.451,0c-5.749,0 -3.47,-4.334 -3.47,-9.62c0,-2.55 0,-5.1 0,-7.648c0,-0.212 -4.541,-0.621 -4.945,-0.223c-1.782,1.752 0,13.889 0,16.641c0,2.129 -26.391,0.446 -26.391,0.627c0,-5.473 0,-10.945 0,-16.418c0,-1.715 -3.026,-0.85 -4.431,-0.85c-1.115,0 -0.514,5.169 -0.514,6.156c0,2.561 1.641,11.335 -1.439,11.335c-6.592,0 -13.184,0 -19.776,0c-3.511,0 -3.833,4.944 -1.022,4.944c6.592,0 13.184,0 19.776,0c4.385,0 2.461,4.675 2.461,8.523c0,1.719 0.792,13.757 -0.663,13.757c-5.967,0 -11.934,0 -17.899,0c-0.637,0 -4.656,-0.505 -5.115,0c-0.583,0.64201 -0.44,4.944 0.663,4.944c5.967,0 11.934,0 17.899,0c6.402,0 5.115,0.41 5.115,6.83801c0,2.338 1.623,13.832 0,15.423c-1.849,1.815 -14.339,0 -17.007,0c-2.165,0 -4.333,0 -6.498,0c-0.114,0 -0.543,4.538 -0.172,4.946c1.574,1.734 14.556,0 17.005,0c5.873,0 6.672,-1.393 6.672,4.53201c0,3.298 0,6.595 0,9.89c0,3.39 -0.284,3.067 3.205,3.067c3.56,0 1.74,-9.89101 1.74,-12.957c0,-6.341 1.721,-4.53201 7.93,-4.53201c5.95,0 11.898,0 17.847,0c1.332,0 0.614,12.596 0.614,14.422c0,4.027 4.945,4.764 4.945,1.25c0,-1.471 -0.166,-15.672 0.157,-15.672c5.534,0 11.065,0 16.597,0c4.709,0 9.637,-2.2 9.637,3.068c0,1.708 -0.572,14.42101 0.514,14.42101c1.403,0 4.432,0.863 4.432,-0.85001c0,-3.495 0,-6.99 0,-10.48199c0,-6.09 -1.021,-6.15701 4.984,-6.15701c5.973,0 11.948,0 17.922,0c0.105,0 0.53899,-4.544 0.169,-4.946c-0.459,-0.494 -4.355,0 -4.985,0c-5.973,0 -11.948,0 -17.924,0c-0.35,0 -0.166,-12.626 -0.166,-13.74599c0,-5.356 -2.033,-8.51501 3.605,-8.51501c6.022,0 12.044,0 18.068,0c2.178,0 1.401,-1.064 1.401,-3.20499c0,-2.60101 -1.137,-1.73901 -3.606,-1.73901c-6.022,0 -12.044,0 -18.068,0c-3.023,0 -1.4,-9.492 -1.4,-12.019c0,-2.422 -1.574,-10.262 1.4,-10.262c6.427,0 12.85,0 19.273,0c3.466,0 3.105,-4.944 1.755,-4.944c-5.309,0 -10.619,0 -15.928,0c-4.436,0 -6.501,1.544 -6.501,-3.068c0,-4.806 0,-9.614 0,-14.422"/>
  </g>
 </g>
</svg>

