<?xml version="1.0" encoding="UTF-8" standalone="no"?>
<svg
   xmlns:dc="http://purl.org/dc/elements/1.1/"
   xmlns:cc="http://creativecommons.org/ns#"
   xmlns:rdf="http://www.w3.org/1999/02/22-rdf-syntax-ns#"
   xmlns:svg="http://www.w3.org/2000/svg"
   xmlns="http://www.w3.org/2000/svg"
   xmlns:sodipodi="http://sodipodi.sourceforge.net/DTD/sodipodi-0.dtd"
   xmlns:inkscape="http://www.inkscape.org/namespaces/inkscape"
   height="512px"
   id="Layer_1"
   style="enable-background:new 0 0 512 512;"
   version="1.1"
   viewBox="0 0 512 512"
   width="512px"
   x="0px"
   xml:space="preserve"
   y="0px"
   inkscape:version="0.48.4 r9939"
   sodipodi:docname="close_icon.svg"
   inkscape:export-filename="C:\Users\roberto\workspaces\workspace-cpp\composer-master\composer-gui\images\close_icon.png"
   inkscape:export-xdpi="5.6199999"
   inkscape:export-ydpi="5.6199999"><metadata
     id="metadata3001"><rdf:RDF><cc:Work
         rdf:about=""><dc:format>image/svg+xml</dc:format><dc:type
           rdf:resource="http://purl.org/dc/dcmitype/StillImage" /><dc:title></dc:title></cc:Work></rdf:RDF></metadata><defs
     id="defs2999" /><sodipodi:namedview
     pagecolor="#ffffff"
     bordercolor="#666666"
     borderopacity="1"
     objecttolerance="10"
     gridtolerance="10"
     guidetolerance="10"
     inkscape:pageopacity="0"
     inkscape:pageshadow="2"
     inkscape:window-width="463"
     inkscape:window-height="423"
     id="namedview2997"
     showgrid="false"
     inkscape:zoom="0.41015625"
     inkscape:cx="-11.64311"
     inkscape:cy="499.12093"
     inkscape:window-x="0"
     inkscape:window-y="269"
     inkscape:window-maximized="0"
     inkscape:current-layer="Layer_1" /><path
     d="M 393.79984,355.7426 291.80843,253.75119 393.79984,151.75978 c 11.01133,-11.01132 11.01133,-28.73877 0,-39.7501 -11.01132,-11.01132 -28.73877,-11.01132 -39.75009,0 L 252.05833,214.0011 150.06693,112.00968 c -11.01133,-11.01132 -28.73877,-11.01132 -39.75011,0 -11.011317,11.01133 -11.011317,28.73878 0,39.7501 L 212.30824,253.75119 110.31682,355.7426 c -11.011317,11.01133 -11.011317,28.73877 0,39.7501 11.01134,11.01132 28.73878,11.01132 39.75011,0 L 252.05833,293.50129 354.04975,395.4927 c 11.01132,11.01132 28.73877,11.01132 39.75009,0 10.93323,-11.01133 10.93323,-28.81687 0,-39.7501 z"
     id="path2995"
     style="fill:#e4e4e4"
     inkscape:connector-curvature="0" /></svg>