<?xml version="1.0" encoding="UTF-8" standalone="no"?>
<svg
   xmlns:dc="http://purl.org/dc/elements/1.1/"
   xmlns:cc="http://creativecommons.org/ns#"
   xmlns:rdf="http://www.w3.org/1999/02/22-rdf-syntax-ns#"
   xmlns:svg="http://www.w3.org/2000/svg"
   xmlns="http://www.w3.org/2000/svg"
   xmlns:sodipodi="http://sodipodi.sourceforge.net/DTD/sodipodi-0.dtd"
   xmlns:inkscape="http://www.inkscape.org/namespaces/inkscape"
   height="512px"
   id="Layer_1"
   style="enable-background:new 0 0 512 512;"
   version="1.1"
   viewBox="0 0 512 512"
   width="512px"
   x="0px"
   xml:space="preserve"
   y="0px"
   inkscape:version="0.48.4 r9939"
   sodipodi:docname="refresh_icon.svg"
   inkscape:export-filename="C:\Users\roberto\workspaces\workspace-cpp\composer-master\composer-gui\images\refresh_icon.png"
   inkscape:export-xdpi="5.6199999"
   inkscape:export-ydpi="5.6199999"><metadata
     id="metadata3019"><rdf:RDF><cc:Work
         rdf:about=""><dc:format>image/svg+xml</dc:format><dc:type
           rdf:resource="http://purl.org/dc/dcmitype/StillImage" /><dc:title></dc:title></cc:Work></rdf:RDF></metadata><defs
     id="defs3017" /><sodipodi:namedview
     pagecolor="#ffffff"
     bordercolor="#666666"
     borderopacity="1"
     objecttolerance="10"
     gridtolerance="10"
     guidetolerance="10"
     inkscape:pageopacity="0"
     inkscape:pageshadow="2"
     inkscape:window-width="919"
     inkscape:window-height="831"
     id="namedview3015"
     showgrid="false"
     inkscape:zoom="0.4609375"
     inkscape:cx="256"
     inkscape:cy="-91.118644"
     inkscape:window-x="665"
     inkscape:window-y="0"
     inkscape:window-maximized="0"
     inkscape:current-layer="Layer_1" /><path
     d="m 364.66988,330.11864 72.18887,-85.39063 h -49.70502 c -5.11339,-78.82812 -66.84992,-139.60937 -143.40019,-139.60937 -79.25735,0 -143.77614,67.26563 -143.77614,150 0,82.73437 64.51879,150 143.77614,150 32.40981,0 63.01487,-11.01563 88.50656,-31.79688 l 5.63976,-4.60937 -32.485,-36.09375 -4.66219,3.59375 c -16.61848,12.73437 -36.32002,19.45312 -56.99913,19.45312 -53.08887,0 -96.32699,-45.07812 -96.32699,-100.54687 0,-55.46876 43.23812,-100.54688 96.32699,-100.54688 49.93063,0 90.76246,39.0625 95.80065,90.07813 H 283.8334 l 80.83648,85.46875 z"
     id="path3013"
     style="fill:#e4e4e4"
     inkscape:connector-curvature="0" /></svg>