<svg width="138" height="137" xmlns="http://www.w3.org/2000/svg">
 <g>
  <title>Layer 1</title>
  <g id="g3">
   <path d="m137.875,131.412994c0,7.718002 -13.723,5.431 -18.417,5.431c-12.642998,0 -25.286003,0 -37.93,0c-24.223999,0 -48.447998,0 -72.67,0c-6.382,0 -8.62,-3.20401 -8.62,-9.287003c0,-10.141998 0,-20.278984 0,-30.416c0,-26.945 0,-53.884991 0,-80.830002c0,-4.784989 -1.999,-16.310989 5.582,-16.310989c6.781,0 13.562999,0 20.343999,0c27.660002,0 55.320002,0 82.979998,0c7.578003,0 15.157013,0 22.736008,0c7.631012,0 5.993988,9.216 5.993988,14.268c0,26.530001 0,53.057997 0,79.585997c0.001022,12.519005 0.001022,25.041 0.001022,37.558998" id="path5" fill="#4165A5"/>
   <path d="m135.123001,129.240005c0,7.633011 -14.270004,5.256012 -18.844002,5.256012c-13.041,0 -26.082001,0 -39.123001,0c-22.688,0 -45.375998,0 -68.063998,0c-7.888,0 -6.119,-9.401009 -6.119,-14.710007c0,-12.902 0,-25.804008 0,-38.708c0,-13.521004 0,-27.046001 0,-40.569c0,-4.740002 -2.331,-18.210001 5.395,-18.210001c40.209999,0 80.424,0 120.633999,0c7.362,0 6.121002,7.554001 6.121002,12.605001c0,11.812 0,23.625988 0,35.438c0,19.631989 0,39.266991 0,58.897995" id="path7" fill="#FFFFFF"/>
   <path d="m130.371994,124.101997c0,7.437996 -14.891014,4.965996 -19.271004,4.965996c-13.417,0 -26.834991,0 -40.251991,0c-13.758011,0 -27.514999,0 -41.272999,0c-4.440001,0 -16.747,2.276001 -20.418,-1.455986c-4.111,-4.179001 -1.433,-18.57 -1.433,-23.586998c0,-14.447998 0,-28.895996 0,-43.342999c0,-9.237 0,-18.472 0,-27.707001c0,-7.41 10.96,-5.382 15.717,-5.382c21.114012,0 42.230997,0 63.345011,0c9.290001,0 18.577003,0 27.865997,0c3.491005,0 11.444,-1.431 14.286995,1.452c2.979004,3.017002 1.432999,11.547001 1.432999,15.206001c0,10.757999 0,21.516003 0,32.273998c-0.001007,15.860001 -0.001007,31.717987 -0.001007,47.577003" id="path9" fill="#F4F4F4"/>
   <linearGradient gradientTransform="matrix(2.1657 10.4264 10.4264 -2.1657 -5508.144 -6816.1445)" id="XMLID_2_" x1="-11.32625" x2="-11.30756" y1="3.69703" y2="3.69703">
    <stop id="stop12" offset="0" stop-color="#F4F4F4"/>
    <stop id="stop14" offset="1" stop-color="#CDCDCD"/>
   </linearGradient>
  </g>
  <text transform="matrix(2.60187, 0, 0, 2.00085, -133.946, -91.6756)" xml:space="preserve" text-anchor="middle" font-family="Cursive" font-size="50" id="svg_1" y="100.932592" x="77.689249" stroke-width="0" stroke="#bfbfbf" fill="#ff0000">X</text>
 </g>
</svg>

